<?xml version="1.0" standalone="no"?><!DOCTYPE svg PUBLIC "-//W3C//DTD SVG 1.1//EN" "http://www.w3.org/Graphics/SVG/1.1/DTD/svg11.dtd"><svg t="1618972838346" class="icon" viewBox="0 0 1024 1024" version="1.1" xmlns="http://www.w3.org/2000/svg" p-id="1257" xmlns:xlink="http://www.w3.org/1999/xlink" width="200" height="200"><defs><style type="text/css"></style></defs><path d="M515.868444 39.822222a227.555556 227.555556 0 0 1 225.848889 199.111111h47.217778a79.644444 79.644444 0 0 1 78.677333 67.527111l89.258667 580.266667a79.644444 79.644444 0 0 1-78.734222 91.761778H153.6a79.644444 79.644444 0 0 1-78.734222-91.761778l89.315555-580.266667A79.644444 79.644444 0 0 1 242.858667 238.933333h47.217777A227.555556 227.555556 0 0 1 515.982222 39.822222z m-170.666666 312.888889a56.888889 56.888889 0 1 0 0 113.777778 56.888889 56.888889 0 0 0 0-113.777778z m341.333333 0a56.888889 56.888889 0 1 0 0 113.777778 56.888889 56.888889 0 0 0 0-113.777778z m-170.666667-256A170.666667 170.666667 0 0 0 347.591111 238.933333h336.611556a170.666667 170.666667 0 0 0-168.334223-142.222222z" p-id="1258" ></path></svg>