<?xml version="1.0" encoding="UTF-8"?>
<svg width="24px" height="24px" viewBox="0 0 24 24" version="1.1" xmlns="http://www.w3.org/2000/svg" xmlns:xlink="http://www.w3.org/1999/xlink">
    <!-- Generator: Sketch 57.1 (83088) - https://sketch.com -->
    <title>iPhone XS</title>
    <desc>Created with Sketch.</desc>
    <g id="移动端品牌街" stroke="none" stroke-width="1" fill="none" fill-rule="evenodd">
        <g id="左侧导航备份" transform="translate(-56.000000, -142.000000)" fill="#FF7135" fill-rule="nonzero">
            <g id="编组-8" transform="translate(0.000000, 132.000000)">
                <g id="编组-7" transform="translate(52.000000, 8.000000)">
                    <path d="M19.6778865,5.6767384 C22.7229456,8.72179758 22.7229456,13.6766871 19.6778865,16.7217463 C18.3229397,18.0766931 16.5898572,18.8287351 14.8151537,18.9778723 L14.8153825,24.3992424 C14.8153825,24.7637503 14.5198904,25.0592424 14.1553825,25.0592424 C13.7908746,25.0592424 13.4953825,24.7637503 13.4953825,24.3992424 L13.4956113,18.9778723 C11.7209078,18.8287351 9.9878253,18.0766931 8.63287854,16.7217463 C5.58781936,13.6766871 5.58781936,8.72179758 8.63287854,5.6767384 C11.6779377,2.63167921 16.6328273,2.63167921 19.6778865,5.6767384 Z M9.56625949,6.61011935 C7.03669238,9.13968646 7.03669238,13.2587982 9.56625949,15.7883654 C12.0958266,18.3179325 16.2149384,18.3179325 18.7445055,15.7883654 C21.2740726,13.2587982 21.2740726,9.13968646 18.7445055,6.61011935 C16.2149384,4.08055223 12.0958266,4.08055223 9.56625949,6.61011935 Z" id="形状" transform="translate(14.155383, 14.226093) rotate(-45.000000) translate(-14.155383, -14.226093) "></path>
                </g>
            </g>
        </g>
    </g>
</svg>