<?xml version="1.0" encoding="UTF-8"?>
<svg width="24px" height="24px" viewBox="0 0 24 24" version="1.1" xmlns="http://www.w3.org/2000/svg" xmlns:xlink="http://www.w3.org/1999/xlink">
    <!-- Generator: Sketch 57.1 (83088) - https://sketch.com -->
    <title>iPhone XS</title>
    <desc>Created with Sketch.</desc>
    <g id="移动端品牌街" stroke="none" stroke-width="1" fill="none" fill-rule="evenodd">
        <g id="首页" transform="translate(-16.000000, -142.000000)" fill="#363636">
            <g id="编组-8" transform="translate(0.000000, 132.000000)">
                <g id="编组-6" transform="translate(16.000000, 10.000000)">
                    <path d="M17.325,17.6363636 C17.6977922,17.6363636 18,17.941624 18,18.3181818 C18,18.6947396 17.6977922,19 17.325,19 L0.675,19 C0.302207794,19 0,18.6947396 0,18.3181818 C0,17.941624 0.302207794,17.6363636 0.675,17.6363636 L17.325,17.6363636 Z M17.325,10.8181818 C17.6977922,10.8181818 18,11.1234422 18,11.5 C18,11.8765578 17.6977922,12.1818182 17.325,12.1818182 L0.675,12.1818182 C0.302207794,12.1818182 0,11.8765578 0,11.5 C0,11.1234422 0.302207794,10.8181818 0.675,10.8181818 L17.325,10.8181818 Z M17.325,4 C17.6977922,4 18,4.3052604 18,4.68181818 C18,5.05837597 17.6977922,5.36363636 17.325,5.36363636 L0.675,5.36363636 C0.302207794,5.36363636 0,5.05837597 0,4.68181818 C0,4.3052604 0.302207794,4 0.675,4 L17.325,4 Z" id="形状"></path>
                </g>
            </g>
        </g>
    </g>
</svg>