<?xml version="1.0" encoding="UTF-8"?>
<svg width="16px" height="16px" viewBox="0 0 16 16" version="1.1" xmlns="http://www.w3.org/2000/svg" xmlns:xlink="http://www.w3.org/1999/xlink">
    <!-- Generator: Sketch 57.1 (83088) - https://sketch.com -->
    <title>排序</title>
    <desc>Created with Sketch.</desc>
    <g id="移动端品牌街" stroke="none" stroke-width="1" fill="none" fill-rule="evenodd">
        <g id="系列" transform="translate(-343.000000, -193.000000)" fill="#999999" fill-rule="nonzero">
            <g id="编组-10" transform="translate(0.000000, 177.000000)">
                <g id="编组-11" transform="translate(306.000000, 14.000000)">
                    <g id="排序" transform="translate(37.000000, 2.000000)">
                        <path d="M5.24480664,10.2514165 L5.24480656,10.2514165 C5.52016146,10.033516 5.9200249,10.0800907 6.1379269,10.3554464 C6.13828795,10.3559026 6.13864837,10.3563594 6.13900817,10.3568166 L7.79140345,12.4614164 L7.79140345,1.97920684 L7.79140344,1.97920668 C7.76567396,1.62712471 8.03023486,1.32084758 8.38231682,1.29511898 C8.73439879,1.2693895 9.04067592,1.53395039 9.06640453,1.88603236 C9.06867119,1.91704927 9.06867117,1.94819035 9.0664045,1.97920726 L9.0664045,14.3008269 L9.06640452,14.3008342 C9.06715106,14.5732453 8.8951693,14.8161966 8.63799725,14.9060298 L8.6379972,14.9060298 C8.57132476,14.9291716 8.50116856,14.9406727 8.43059643,14.9400553 L8.43059642,14.9400553 C8.23511545,14.9400553 8.05060613,14.8496904 7.93079597,14.695229 L5.13600467,11.1456288 L5.13600466,11.1456288 C4.91901282,10.8695566 4.96690679,10.4698494 5.24297959,10.2528576 C5.24358712,10.2523801 5.24419552,10.2519037 5.24480479,10.2514284 L5.24480664,10.2514165 Z M12.2284174,1.37400482 L12.2284174,1.37400481 C12.4860058,1.28574743 12.7712279,1.37035876 12.9390183,1.58480519 L15.7304202,5.13440534 L15.7304202,5.13440537 C15.9482419,5.41607153 15.8964852,5.82098544 15.61482,6.03880709 C15.3331539,6.25662874 14.92824,6.20487205 14.7104183,5.92320692 C14.7104183,5.92320691 14.7104183,5.92320691 14.7104183,5.9232069 L13.0750137,3.81860711 L13.0750137,14.3008167 L13.0750137,14.3008168 C13.1007432,14.6528987 12.8361823,14.9591759 12.4841004,14.9849045 C12.1320184,15.0106339 11.8257413,14.746073 11.8000127,14.3939911 C11.797746,14.3629742 11.797746,14.3318331 11.8000127,14.3008162 L11.8000127,1.97919652 L11.8000127,1.97919748 C11.8012958,1.70743503 11.9725277,1.46553564 12.2284126,1.37399611 L12.2284174,1.37400482 Z" id="形状"></path>
                    </g>
                </g>
            </g>
        </g>
    </g>
</svg>